<svg xmlns="http://www.w3.org/2000/svg" xmlns:xlink="http://www.w3.org/1999/xlink" width="16" height="16" version="1.1"><rect id="backgroundrect" width="100%" height="100%" x="0" y="0" fill="none" stroke="none"/>

<g class="currentLayer" style=""><title>Layer 1</title><g id="surface1" class="selected" fill="#cccccc" fill-opacity="1">
<path style="stroke: none; fill-rule: nonzero;" d="M 4.84375 0.015625 C 3.699219 0.191406 2.945312 1.28125 3.1875 2.410156 C 3.265625 2.765625 3.433594 3.082031 3.699219 3.363281 C 3.757812 3.425781 4.777344 4.492188 5.960938 5.730469 C 7.144531 6.96875 8.109375 7.984375 8.109375 7.988281 C 8.109375 7.996094 7.109375 9.046875 5.886719 10.332031 C 4.664062 11.617188 3.640625 12.699219 3.609375 12.738281 C 3.410156 12.964844 3.253906 13.285156 3.1875 13.589844 C 2.960938 14.640625 3.597656 15.671875 4.632812 15.941406 C 4.824219 15.992188 4.953125 16.003906 5.207031 15.996094 C 5.535156 15.984375 5.722656 15.9375 6.019531 15.792969 C 6.210938 15.699219 6.371094 15.585938 6.515625 15.445312 C 6.714844 15.253906 12.34375 9.320312 12.425781 9.214844 C 12.640625 8.953125 12.789062 8.609375 12.839844 8.261719 C 12.859375 8.128906 12.859375 7.835938 12.839844 7.703125 C 12.789062 7.351562 12.632812 6.988281 12.414062 6.730469 C 12.292969 6.582031 6.59375 0.625 6.464844 0.507812 C 6.203125 0.273438 5.910156 0.121094 5.570312 0.0429688 C 5.4375 0.0117188 5.390625 0.0078125 5.167969 0.00390625 C 5.03125 0.00390625 4.886719 0.0078125 4.84375 0.015625 Z M 4.84375 0.015625 " id="svg_1" fill="#cccccc" fill-opacity="1"/>
</g></g></svg>