<svg xmlns="http://www.w3.org/2000/svg" width="24.163265228271484" height="24" style=""><rect id="backgroundrect" width="100%" height="100%" x="0" y="0" fill="none" stroke="none"/><g class="currentLayer" style=""><title>Layer 1</title><path d="M6.1376424966863175,3.2059020537173373 A1.832057074306006,1.832057074306006 0 1 0 3.5361214511717893,5.807423099231867 L9.58190979638161,11.834890873698624 l-6.045788345209818,6.027467774466759 a1.832057074306006,1.832057074306006 0 0 0 0,2.6015210455145277 a1.832057074306006,1.832057074306006 0 0 0 2.6015210455145277,0 l7.3282282972240225,-7.3282282972240225 a1.832057074306006,1.832057074306006 0 0 0 0,-2.6015210455145277 zM19.4933385683771,2.6746055021685953 a1.832057074306006,1.832057074306006 0 0 0 -1.832057074306006,1.832057074306006 v14.656456594448045 a1.832057074306006,1.832057074306006 0 0 0 3.6641141486120112,0 V4.506662576474603 A1.832057074306006,1.832057074306006 0 0 0 19.4933385683771,2.6746055021685953 z" id="svg_1" class="" fill-opacity="1" fill="#cccccc"/></g></svg>