<svg xmlns="http://www.w3.org/2000/svg" version="1.0" width="1280.000000" height="1280.000000" preserveAspectRatio="xMidYMid meet" style=""><rect id="backgroundrect" width="100%" height="100%" x="0" y="0" fill="none" stroke="none"/>
<metadata>
Created by potrace 1.16, written by Peter Selinger 2001-2019
</metadata>

<g class="currentLayer" style=""><title>Layer 1</title><g transform="translate(0,1280) scale(0.10000000149011612,-0.10000000149011612) " fill="#cccccc" stroke="none" id="svg_1" class="selected" fill-opacity="1">
<path d="M8466 12790 c-319 -50 -599 -183 -838 -397 -103 -93 -4663 -4860 -4760 -4977 -173 -208 -298 -496 -339 -777 -15 -109 -15 -341 0 -448 41 -278 159 -553 329 -764 67 -84 4571 -4829 4730 -4984 114 -111 243 -201 397 -277 236 -117 388 -155 650 -163 201 -6 305 4 460 44 828 214 1336 1042 1154 1880 -53 246 -178 500 -335 683 -26 30 -846 896 -1823 1923 -977 1028 -1777 1871 -1779 1875 -1 4 773 817 1719 1807 947 990 1762 1843 1811 1895 210 225 345 479 407 763 157 725 -202 1459 -869 1776 -124 58 -197 84 -340 118 -90 21 -134 25 -310 28 -113 2 -231 0 -264 -5z" id="svg_2" fill="#cccccc"/>
</g></g></svg>